# xmcd
#
# Track frame offsets: 
#        150
#        22876
#        49938
#        68234
#        90727
#        107998
#        131979
#        154747
#        173727
#        196346
#        219917
#        242050
#        259015
#        283428
#        302914
#        322382
#
# Disc length: 4546 seconds
#
# Revision: 0
# Processed by: cddbd v1.5.2PL0 Copyright (c) Steve Scherf et al.
# Submitted via: ExactAudioCopy v1.1
#
DISCID=f411c010
DTITLE=宮野真守 - MAMORU MIYANO presents M&M THE BEST
DYEAR=1900
DGENRE=
TTITLE0=Kiss×Kiss
TTITLE1=Not Alone
TTITLE2=MOONLIGHT
TTITLE3=Last Around
TTITLE4=SUPER★SOUL
TTITLE5=Beautiful Life
TTITLE6=GOLDEN NIGHT
TTITLE7=THANK YOU
TTITLE8=FOREVER LULLABY
TTITLE9=Identity
TTITLE10=passage,
TTITLE11=Gravity
TTITLE12=EVER LOVE
TTITLE13=POWER OF LOVE
TTITLE14=そっと溶けてゆくように
TTITLE15=EXCITING!
EXTD=
EXTT0=
EXTT1=
EXTT2=
EXTT3=
EXTT4=
EXTT5=
EXTT6=
EXTT7=
EXTT8=
EXTT9=
EXTT10=
EXTT11=
EXTT12=
EXTT13=
EXTT14=
EXTT15=
PLAYORDER=
